<svg version="1.2" xmlns="http://www.w3.org/2000/svg" viewBox="0 0 1520 405" width="1520" height="405">
	<title>demelogo-svg</title>
	<style>
		.s0 { fill: #1e2458 } 
		.s1 { fill: #00b455 } 
	</style>
	<path id="Layer" fill-rule="evenodd" class="s0" d="m671.1 327v-233.5h221.9v46.7h-155.3v43.4h149.5v46.7h-149.5v50h157.8v46.7zm846.2-233.5v46.7h-155.3v43.4h149.4v46.7h-149.4v50h157.9v46.7h-224.4v-233.5zm-1007 0c66.2 0 120.2 52.4 120.2 116.8 0 64.5-54 116.9-120.2 116.9h-149.6v-233.7zm-18 47h-65v139.6h65c39.5 0 71.8-31.3 71.8-69.8 0-38.6-32.3-69.8-71.8-69.8zm458.7 186.5v-233.5h84.8l60.2 138.1 53.3-138.1h90.8v233.5h-64.4v-146.8l-59.8 145.4h-40.7l-59.8-145v146.4z"/>
	<path id="Layer" class="s0" d="m1.3 404.2h273.2v-38.9c-107.6 5-273.2 2-273.2 2z"/>
	<path id="Layer" class="s1" d="m274.5 274.5v52.5c-128.1 19.1-273.2 13.8-273.2 13.8v-37c167.9-0.2 273.2-29.3 273.2-29.3zm-103-139.2c21.4 18.3 38.9 46.3 44.3 75.8l-15.7 47.7h-120.6l-0.7-1.9c50-21.6 85.7-64.5 92.7-121.6zm-169.9-17.3c36.5 39.7 89.3 59.7 147 48.6-10.8 24.4-30.9 48-56.3 62.5l-3.8 2.1-51.1 0.2-37.4-112.2zm229.6-31.9l4.4 0.5 41.5 29.4-37.2 112.1-2.1 0.2c-5.5-53.2-36.3-99.8-89.6-123.8 23.3-13.7 53.9-21.3 83-18.4zm-120-84l1.7 1.1c-27.4 46.2-30.5 101.5-1.9 151.7-26.9-2.5-56.2-13.8-78-32.8l-3.4-3.1-16-47.6zm50.7-2l97.7 69.4-0.7 1.9c-53.4-11.3-108 3-148 45.2-5.9-25.9-4-56.5 7.7-82.6l2-4.3z"/>
</svg>