<?xml version="1.0" encoding="UTF-8" standalone="no"?>
<!-- Created with Inkscape (http://www.inkscape.org/) -->

<svg
   xmlns:dc="http://purl.org/dc/elements/1.1/"
   xmlns:cc="http://creativecommons.org/ns#"
   xmlns:rdf="http://www.w3.org/1999/02/22-rdf-syntax-ns#"
   xmlns:svg="http://www.w3.org/2000/svg"
   xmlns="http://www.w3.org/2000/svg"
   version="1.1"
   width="892.91339"
   height="239.52756"
   id="svg3085">
  <defs
     id="defs3087">
    <clipPath
       id="clipPath3037">
      <path
         d="m 72.708,84.817 113.42,0 0,29.783 -113.42,0 0,-29.783 z"
         id="path3039" />
    </clipPath>
  </defs>
  <metadata
     id="metadata3090">
    <rdf:RDF>
      <cc:Work
         rdf:about="">
        <dc:format>image/svg+xml</dc:format>
        <dc:type
           rdf:resource="http://purl.org/dc/dcmitype/StillImage" />
        <dc:title></dc:title>
      </cc:Work>
    </rdf:RDF>
  </metadata>
  <g
     transform="translate(36.601527,-351.44878)"
     id="layer1">
    <g
       transform="matrix(7.8101737,0,0,-7.8101737,-600.92345,1249.9525)"
       id="g3033">
      <g
         clip-path="url(#clipPath3037)"
         id="g3035">
        <g
           transform="translate(97.003,95.1741)"
           id="g3041">
          <path
             d="m 0,0 c 0,3.036 0.227,5.817 -2.043,8.087 -1.334,1.334 -3.235,1.93 -5.335,1.93 l -7.292,0 0,-20.203 7.292,0 c 2.1,0 4.001,0.595 5.335,1.929 C 0.227,-5.987 0,-3.036 0,0 m -3.944,0 c 0,-3.065 -0.114,-4.512 -0.851,-5.419 -0.681,-0.823 -1.589,-1.249 -2.951,-1.249 l -2.98,0 0,13.166 2.98,0 c 1.362,0 2.27,-0.426 2.951,-1.248 C -4.058,4.341 -3.944,3.065 -3.944,0 m 21.565,-10.186 0,3.518 -9.364,0 0,4.909 7.973,0 0,3.518 -7.973,0 0,4.739 9.364,0 0,3.519 -13.308,0 0,-20.203 13.308,0 z m 18.699,6.923 0,13.28 -3.916,0 0,-13.138 c 0,-2.327 -1.39,-3.717 -3.518,-3.717 -2.128,0 -3.49,1.39 -3.49,3.717 l 0,13.138 -3.945,0 0,-13.28 c 0,-4.285 3.292,-7.094 7.435,-7.094 4.142,0 7.434,2.809 7.434,7.094 m 17.99,9.761 0,3.519 -13.308,0 0,-20.203 3.944,0 0,8.2 7.973,0 0,3.518 -7.973,0 0,4.966 9.364,0 z m 17.393,-6.583 c 0,3.49 0.028,6.015 -2.014,8.059 -1.419,1.418 -3.15,2.213 -5.449,2.213 -2.298,0 -4.057,-0.795 -5.476,-2.213 -2.043,-2.044 -1.986,-4.569 -1.986,-8.059 0,-3.49 -0.057,-6.016 1.986,-8.058 1.419,-1.419 3.178,-2.214 5.476,-2.214 2.299,0 4.03,0.795 5.449,2.214 2.042,2.042 2.014,4.568 2.014,8.058 m -3.944,0 c 0,-3.888 -0.227,-4.824 -0.993,-5.675 -0.568,-0.653 -1.447,-1.078 -2.526,-1.078 -1.078,0 -1.986,0.425 -2.553,1.078 -0.767,0.851 -0.965,1.787 -0.965,5.675 0,3.887 0.198,4.824 0.965,5.675 0.567,0.652 1.475,1.078 2.553,1.078 1.079,0 1.958,-0.426 2.526,-1.078 0.766,-0.851 0.993,-1.788 0.993,-5.675 m 21.367,-10.101 0,3.518 -9.166,0 0,16.685 -3.944,0 0,-20.203 13.11,0 z"
             id="path3043"
             style="fill:#000000;fill-opacity:1;fill-rule:nonzero;stroke:none" />
        </g>
        <g
           transform="translate(100.1174,110.6937)"
           id="g3045">
          <path
             d="m 0,0 -3.696,3.906 -23.713,0 0,-25.197 4.119,-4.342 -0.009,25.63 L 0,0 z"
             id="path3047"
             style="fill:#e3000f;fill-opacity:1;fill-rule:nonzero;stroke:none" />
        </g>
      </g>
    </g>
  </g>
</svg>
