<svg xmlns="http://www.w3.org/2000/svg" xmlns:xlink="http://www.w3.org/1999/xlink" style="isolation:isolate" viewBox="0 0 700 186" width="700pt" height="186pt"><defs><clipPath id="_clipPath_zGpqY4gPJmfP7jQ9P0xk0urr8Y4miXXA"><rect width="700" height="186"></rect></clipPath></defs><g clip-path="url(#_clipPath_zGpqY4gPJmfP7jQ9P0xk0urr8Y4miXXA)"><path d=" M 653.9 0.2 C 653.9 0.4 649.5 31.2 644.1 68.8 L 634.4 137 L 657 137 L 679.7 137 L 688.9 71.7 C 694 35.9 698.4 5 698.7 3.2 L 699.2 0 L 676.6 0 C 664.2 0 654 0.1 653.9 0.2 Z " fill="rgb(223,78,21)"></path><path d=" M 251.6 3.7 C 251.3 5.3 250.1 13.9 249 23 C 247.8 32.1 246.7 40.5 246.4 41.7 L 246 44 L 221.9 44 C 200.1 44 197.6 44.2 194.1 46 C 190 48 185.9 52.4 183.4 57.3 C 181.6 60.6 176 102.7 176 112.4 C 176 122.6 182.9 132.5 191.7 134.9 C 194.1 135.6 210.7 136 236.7 136 L 278 136 L 278.5 133.7 C 279.2 130.3 297 4.7 297 2.7 C 297 1.1 295.3 1 274.6 1 L 252.2 1 L 251.6 3.7 Z M 242.4 66.8 C 242.8 67.4 237.7 106.4 236.4 112.7 C 236 114.9 235.5 115 228 115 C 223.6 115 220 114.7 220 114.2 C 220 112.9 226.2 68.5 226.6 67.2 C 227 65.9 241.5 65.4 242.4 66.8 Z " fill="rgb(223,78,21)"></path><path d=" M 16 27.7 C 16 28.7 15.7 31.2 15.4 33.2 L 14.7 37 L 37.2 37 L 59.8 37 L 60.4 33.9 C 60.7 32.2 61 29.7 61 28.4 L 61 26 L 38.5 26 C 17.7 26 16 26.1 16 27.7 Z " fill="rgb(223,78,21)"></path><path d=" M 13.5 46.2 C 12.9 48.9 1 134.2 1 135.9 C 1 136.7 7.3 137 23.5 137 C 35.9 137 46 136.6 46 136.2 C 46 135.7 48.9 115 52.5 90 C 56.1 65 59 44.5 59 44.3 C 59 44.1 48.9 44 36.5 44 L 14 44 L 13.5 46.2 Z " fill="rgb(223,78,21)"></path><path d=" M 68 44.7 C 68 45.2 65.1 65.7 61.5 90.3 C 57.9 114.9 55 135.3 55 135.5 C 55 136 99.9 136.2 100.1 135.7 C 100.1 135.6 102.5 119.7 105.3 100.5 L 110.5 65.5 L 117.4 65.2 C 121.2 65 124.8 65.1 125.5 65.4 C 126.6 65.8 126.2 69.4 117.5 131.2 L 116.8 136 L 139.8 136 L 162.8 136 L 163.3 133.2 C 163.5 131.7 165.5 116.1 167.6 98.4 C 172 61.3 171.9 60.5 164.3 52 C 157.2 44.1 156.6 44 108.8 44 C 86.4 44 68 44.3 68 44.7 Z " fill="rgb(223,78,21)"></path><path d=" M 300.5 47.2 C 298.4 59.9 292 109.3 292 112.9 C 292 122.2 299.5 132.7 307.7 134.9 C 310.1 135.6 327.2 136 353.3 136 C 387.1 136 395 135.8 395 134.7 C 395 133.4 406.4 53.6 407.5 47.2 L 408.1 44 L 385.3 44.2 L 362.6 44.5 L 357.4 80 C 354.5 99.5 352.1 115.5 352.1 115.6 C 352 115.8 336.5 114.8 336.3 114.6 C 336.2 114.5 338.3 98.7 341.1 79.5 C 343.8 60.2 346 44.4 346 44.2 C 346 44.1 335.9 44 323.5 44 L 301.1 44 L 300.5 47.2 Z " fill="rgb(223,78,21)"></path><path d=" M 416.6 46.2 C 415.8 49.9 397 181.3 397 183.2 C 397 184.9 398.7 185 419.4 185 L 441.8 185 L 442.4 182.2 C 442.7 180.7 444.1 170.9 445.5 160.5 C 446.9 150 448.3 140.5 448.5 139.3 C 449 137.1 449.3 137 462.8 137 C 479.8 137 487.6 135.8 496 131.9 C 503.4 128.5 508.3 124.2 511.1 118.8 C 513.6 114 520.3 70.3 519.4 65.1 C 518 57.3 511.9 49.2 505.3 46.2 C 502 44.7 496.4 44.5 459.3 44.2 L 417.1 43.9 L 416.6 46.2 Z M 474.9 67.7 C 474.9 69.3 473.4 80.4 471.7 92.5 L 468.5 114.5 L 460.5 114.1 C 456.1 113.9 452.4 113.7 452.2 113.5 C 452.1 113.4 453.5 102.6 455.5 89.5 C 457.4 76.3 459 65.5 459 65.3 C 459 65.1 462.6 65 467 65 L 475 65 L 474.9 67.7 Z " fill="rgb(223,78,21)"></path><path d=" M 544.5 46.9 C 538.9 49.4 534.4 53.5 531.3 58.7 C 529.1 62.4 528.3 66.4 525.9 83.8 C 522.4 109.1 522.2 116.8 525.1 122.6 C 527.7 128.1 533.8 133.6 538.7 134.9 C 541 135.6 555.4 136 575.8 136 C 602.5 136 609.7 135.7 612.5 134.6 C 617.7 132.4 625.7 124.4 627.4 119.7 C 629.4 114.3 636 74.7 636 68.2 C 636 60.9 631.1 51.6 625.2 47.9 L 620.6 45 L 584.6 45 C 551.8 45 548.1 45.2 544.5 46.9 Z M 590.5 66 C 591 66.8 587 96.7 584.5 111.7 L 583.9 115 L 576 115 C 566.5 115 567 117.2 570.4 93.5 C 571.8 84.1 573.2 73.9 573.5 70.7 L 574.2 65 L 582.1 65 C 586.4 65 590.2 65.4 590.5 66 Z " fill="rgb(223,78,21)"></path></g></svg>