<?xml version="1.0" encoding="UTF-8" standalone="no"?>
<svg
   width="256.01001"
   height="199.69"
   version="1.1"
   viewBox="0 0 256.01001 199.69"
   id="svg4"
   sodipodi:docname="KBC logo.svg"
   inkscape:version="1.4 (86a8ad7, 2024-10-11)"
   xmlns:inkscape="http://www.inkscape.org/namespaces/inkscape"
   xmlns:sodipodi="http://sodipodi.sourceforge.net/DTD/sodipodi-0.dtd"
   xmlns="http://www.w3.org/2000/svg"
   xmlns:svg="http://www.w3.org/2000/svg">
  <defs
     id="defs4" />
  <sodipodi:namedview
     id="namedview4"
     pagecolor="#ffffff"
     bordercolor="#000000"
     borderopacity="0.25"
     inkscape:showpageshadow="2"
     inkscape:pageopacity="0.0"
     inkscape:pagecheckerboard="0"
     inkscape:deskcolor="#d1d1d1"
     inkscape:zoom="2.446875"
     inkscape:cx="128.12261"
     inkscape:cy="99.923372"
     inkscape:window-width="1920"
     inkscape:window-height="1001"
     inkscape:window-x="-9"
     inkscape:window-y="-9"
     inkscape:window-maximized="1"
     inkscape:current-layer="svg4" />
  <!--{"metaAttributes":{"multicolor":true,"glyph":false,"rotatable":false,"deprecated":false,"rename":false,"themeable":false,"low-quality":false,"custom-viewport":false,"lottie":false}}-->
  <circle
     cx="129.48"
     cy="44.200001"
     r="44.200001"
     fill="#0097db"
     id="circle1" />
  <path
     d="m 162.07,79.970002 c -8.42,9.13 -23.27,18.26 -42.32,18.26 -14.78,0 -27.51,-5.75 -35.61,-12.13 -48.25,5.06 -84.14,12.24 -84.14,12.24 V 117.88 l 255.99,-0.03 V 77.560002 c 0,0 -43.86,-0.27 -93.92,2.41 z"
     fill="#0097db"
     id="path1" />
  <path
     d="m 30.42,175.01 v 23.81 H 0.01 v -63.34 h 30.41 v 28.5 h 0.18 l 17.9,-28.5 h 36.46 l -26.7,32.74 25.2,30.6 H 48.66 L 30.64,175.01 Z"
     fill="#0d2a50"
     id="path2" />
  <path
     d="m 256.01,196.2 c -7.18,2.19 -16.61,3.49 -25.05,3.49 -30.08,0 -52.18,-8.55 -52.18,-33.42 0,-22.48 21.41,-32.24 50.68,-32.24 8.13,0 18.47,0.9 26.55,3.48 v 21.77 c -6,-3.63 -11.99,-5.89 -20.57,-5.89 -11.17,0 -22.32,5.5 -22.32,13.48 0,7.98 11.11,13.48 22.32,13.48 8.44,0 14.57,-2.34 20.56,-5.8 v 21.66 h 0.01 z"
     fill="#0d2a50"
     id="path3" />
  <path
     d="m 89.94,135.48 h 61.48 c 15.97,0 21.2,6.21 21.2,15.88 0,10.82 -9.67,15.52 -19.61,16.06 v 0.18 c 10.2,0.8 20.14,1.95 20.14,14.72 0,8.34 -5.23,16.5 -22.79,16.5 H 89.95 v -63.34 z m 30.41,50.46 h 15.86 c 5.95,0 7.97,-2.46 7.97,-6.1 0,-3.64 -2.04,-6.25 -7.9,-6.25 h -15.92 v 12.35 z m 0,-23.62 h 15.15 c 5.85,0 8.15,-2.37 8.15,-6.01 0,-4.17 -2.31,-6.25 -7.72,-6.25 h -15.57 v 12.26 0 z"
     fill="#0d2a50"
     id="path4" />
</svg>
