<?xml version="1.0" encoding="UTF-8"?><svg id="Laag_1" xmlns="http://www.w3.org/2000/svg" viewBox="0 0 1271.64 160.19"><defs><style>.cls-1{fill:#f9fafa;}.cls-2{fill:#0a7;}</style></defs><g><g><path class="cls-1" d="M849.55,51.27l-.02,.03v-.03h-4.78c-2.78,0-4.73-.63-5.84-1.9-1.12-1.27-1.67-3.53-1.67-6.8V24.76h12.3V15.97h-12.3V0h-11.64V15.97h-8.21v8.78h8.21v21.49c0,4.47,1.16,7.88,3.47,10.25,2.31,2.37,5.6,3.55,9.84,3.55h15.85c-3.38-2.34-4.41-5.3-5.21-8.78Z"/><g><path class="cls-1" d="M609.25,10.95h-12.21V0h12.21V10.95Zm0,49.1h-12.21V15.97h12.21V60.05Z"/><path class="cls-1" d="M619.3,15.97h21.9c6.62,0,11.34,1.24,14.18,3.72,2.83,2.48,4.25,6.62,4.25,12.42v27.94h-11.64v-26.51c0-3.27-.5-5.4-1.51-6.39-1.01-.99-3.06-1.49-6.17-1.49h-9.35V60.05h-11.64V15.97Z"/><path class="cls-1" d="M669.5,15.97h21.9c6.62,0,11.34,1.24,14.18,3.72,2.83,2.48,4.25,6.62,4.25,12.42v27.94h-11.64v-26.51c0-3.27-.5-5.4-1.51-6.39-1.01-.99-3.06-1.49-6.17-1.49h-9.35V60.05h-11.64V15.97Z"/><path class="cls-1" d="M763.54,38.03c0,6.92-2.1,12.44-6.31,16.56-4.21,4.13-9.88,6.19-17.02,6.19s-12.83-2.07-17.08-6.21c-4.25-4.14-6.37-9.65-6.37-16.54s2.12-12.42,6.37-16.59c4.25-4.17,9.94-6.25,17.08-6.25s12.71,2.08,16.95,6.23c4.25,4.15,6.37,9.69,6.37,16.61Zm-34.56,0c0,4.17,.98,7.43,2.94,9.78,1.96,2.36,4.7,3.53,8.21,3.53s6.22-1.18,8.21-3.53c1.99-2.36,2.98-5.62,2.98-9.78s-.99-7.42-2.96-9.76c-1.98-2.34-4.72-3.51-8.23-3.51s-6.22,1.17-8.19,3.51c-1.97,2.34-2.96,5.6-2.96,9.76Z"/><path class="cls-1" d="M770.73,15.97h22.43c6.75,0,12.02,2,15.81,5.98,3.78,3.99,5.68,9.52,5.68,16.61,0,1.44-.1,2.83-.29,4.17-.19,1.33-.49,2.63-.9,3.88-.79,2.42-1.99,4.64-3.59,6.66-1.85,2.37-4.13,4.09-6.84,5.17-2.71,1.08-6.26,1.61-10.64,1.61h-10.01v15.97h-11.64V15.97Zm11.64,9.52v25.12h7.11c4.68,0,8.01-.99,9.99-2.96,1.98-1.97,2.96-5.29,2.96-9.95s-.9-7.58-2.7-9.44c-1.8-1.85-4.92-2.78-9.36-2.78h-8.01Z"/><path class="cls-1" d="M896.31,60.05h-21.94c-6.45,0-11.12-1.27-13.99-3.82-2.87-2.55-4.31-6.65-4.31-12.32V15.97h11.6v27c0,2.94,.51,4.9,1.53,5.88,1.02,.98,3.06,1.47,6.11,1.47h9.35V15.97h11.64V60.05Z"/><path class="cls-1" d="M906.07,50.86h24.55c2.15,0,3.73-.34,4.74-1.02,1.01-.68,1.51-1.77,1.51-3.27s-.5-2.53-1.51-3.25c-1.01-.72-2.59-1.08-4.74-1.08h-10.05c-5.96,0-9.99-.91-12.09-2.72-2.1-1.81-3.15-5.06-3.15-9.74s1.27-8.19,3.82-10.44c2.55-2.25,6.46-3.37,11.74-3.37h25v9.19h-20.55c-3.35,0-5.53,.3-6.54,.9-.46,.27-.83,.67-1.1,1.21-.27,.53-.41,1.16-.41,1.9,0,1.33,.43,2.34,1.31,3.02,.92,.63,2.33,.94,4.21,.94h10.54c4.85,0,8.53,1.12,11.05,3.35,2.52,2.23,3.78,5.49,3.78,9.76s-1.13,7.43-3.39,9.97c-1.09,1.25-2.36,2.21-3.8,2.86-1.44,.65-3.06,.98-4.86,.98h-30.07v-9.19Z"/></g></g><g><path class="cls-1" d="M609.63,158.11c-5.16-1.39-9.36-3.27-12.6-5.66l5.85-13.2c3.44,2.18,7.09,3.85,10.96,5.01,3.87,1.16,7.75,1.74,11.66,1.74s7.01-.55,9.13-1.64c2.12-1.09,3.18-2.63,3.18-4.61,0-1.79-.96-3.26-2.88-4.42-1.92-1.16-5.52-2.3-10.81-3.42-6.68-1.32-11.87-2.96-15.58-4.91-3.71-1.95-6.3-4.25-7.79-6.9-1.49-2.65-2.23-5.85-2.23-9.62,0-4.3,1.22-8.19,3.67-11.66,2.45-3.47,5.89-6.18,10.32-8.14,4.43-1.95,9.49-2.93,15.18-2.93,5.09,0,10.04,.71,14.83,2.13,4.8,1.42,8.55,3.29,11.26,5.61l-5.75,13.2c-3.11-2.18-6.38-3.85-9.82-5.01-3.44-1.16-6.88-1.74-10.32-1.74s-6.09,.64-8.14,1.93c-2.05,1.29-3.08,3.03-3.08,5.21,0,1.19,.36,2.18,1.09,2.98,.73,.79,2.08,1.57,4.07,2.33,1.98,.76,4.96,1.57,8.93,2.43,6.42,1.39,11.46,3.06,15.13,5.01,3.67,1.95,6.27,4.23,7.79,6.85,1.52,2.61,2.28,5.74,2.28,9.38,0,6.88-2.68,12.29-8.04,16.22-5.36,3.94-12.9,5.9-22.62,5.9-5.29,0-10.52-.69-15.68-2.08Z"/><path class="cls-1" d="M741.82,160.18V87.12h19.29v57.46h30.89v15.6h-50.18Z"/><path class="cls-1" d="M860.31,160.18l-6.46-15.08h-32.43l-6.46,15.08h-19.29l34.17-73.06h15.19l34.27,73.06h-18.98Zm-32.63-29.55h19.91l-9.95-23.09-9.95,23.09Z"/><path class="cls-1" d="M948.16,160.18h-20.42l-9.44-24.32c-1.1-2.74-3.66-4.1-7.7-4.1h-6.98v28.42h-18.98V87.12h33.96c8.82,0,15.46,1.9,19.91,5.7s6.67,9.22,6.67,16.26c0,4.93-1.32,9.18-3.95,12.77-2.63,3.59-6.35,6.14-11.13,7.64,2.05,.41,3.9,1.37,5.54,2.87,1.64,1.51,2.94,3.52,3.9,6.05l8.62,21.75Zm-23.7-44.69c1.85-1.27,2.77-3.23,2.77-5.9,0-2.8-.91-4.82-2.72-6.05-1.81-1.23-4.81-1.85-8.98-1.85h-12.11v15.7h12.11c4.1,0,7.08-.63,8.93-1.9Z"/><path class="cls-1" d="M996.1,160.18v-57.46h-21.75v-15.6h63v15.6h-21.75v57.46h-19.5Z"/><path class="cls-1" d="M1045.72,160.18V87.12h52.13v14.78h-33.35v13.75h31.19v14.78h-31.19v14.98h33.35v14.78h-52.13Z"/><path class="cls-1" d="M1169.91,160.18l-6.46-15.08h-32.43l-6.46,15.08h-19.29l34.17-73.06h15.19l34.27,73.06h-18.98Zm-32.63-29.55h19.91l-9.95-23.09-9.95,23.09Z"/><path class="cls-1" d="M1256.66,87.12h14.98v73.06h-16.83l-.1-33.45-13.85,33.45h-12.21l-13.96-33.04v33.04h-16.73V87.12h15.08l21.86,49.87,21.75-49.87Z"/><path class="cls-1" d="M677.78,155.62c-5.54-3.04-9.8-7.41-12.78-13.09-2.98-5.68-4.46-12.32-4.46-19.91s1.5-14.2,4.52-19.81c3.01-5.61,7.27-9.94,12.78-12.98,5.51-3.04,11.99-4.57,19.45-4.57s13.94,1.52,19.45,4.57c5.51,3.05,9.73,7.37,12.68,12.98,2.94,5.61,4.41,12.21,4.41,19.81s-1.47,14.23-4.41,19.91c-2.94,5.68-7.17,10.04-12.68,13.09-5.51,3.05-11.99,4.57-19.45,4.57s-13.96-1.52-19.5-4.57Zm32.38-15.96c3.11-3.9,4.67-9.58,4.67-17.04s-1.56-13.02-4.67-16.88c-3.11-3.87-7.41-5.8-12.88-5.8s-9.75,1.92-12.83,5.75c-3.08,3.83-4.62,9.48-4.62,16.93s1.54,13.22,4.62,17.09c3.08,3.87,7.35,5.8,12.83,5.8s9.77-1.95,12.88-5.85Z"/></g></g><g><path class="cls-2" d="M0,135.05c1.22-.6,2.36-1.2,3.53-1.72,10.01-4.43,19.99-8.95,30.07-13.24,13.3-5.66,26.76-10.94,40.32-15.93,8.48-3.12,16.99-6.16,25.52-9.15,6.65-2.33,13.31-4.62,20.02-6.74,11.91-3.76,23.85-7.45,35.81-11.03,15.49-4.63,31.1-8.79,46.83-12.53,11.34-2.7,22.73-5.26,34.13-7.7,8.71-1.86,17.47-3.55,26.24-5.12,8.94-1.6,17.9-3.03,26.88-4.4,7.57-1.16,15.17-2.2,22.77-3.14,7.27-.9,14.57-1.62,21.86-2.37,4.39-.45,8.79-.83,13.19-1.18,3.9-.31,7.81-.57,11.71-.82,4.07-.26,8.14-.51,12.22-.73,2.33-.13,4.66-.21,6.99-.27,5.54-.14,11.08-.3,16.62-.38,6-.08,12-.12,18.01-.11,3.58,0,7.16,.12,10.74,.24,3.74,.13,7.49,.31,11.23,.48,3.41,.16,6.82,.31,10.23,.52,3.08,.19,6.15,.41,9.22,.67,4.89,.42,9.79,.84,14.68,1.34,4.6,.48,9.2,.98,13.77,1.63,7.95,1.14,15.91,2.32,23.83,3.64,9.08,1.52,18.09,3.4,27.05,5.54,4.82,1.15,9.62,2.4,14.42,3.62,.36,.09,.71,.22,1.16,.35-.1,.26-.15,.49-.26,.68-4.44,7.12-9.36,13.87-14.99,20.11-6.99,7.75-14.86,14.44-23.77,19.9-7.75,4.75-16.01,8.35-24.71,10.97-9.33,2.81-18.87,4.49-28.58,5.22-4.03,.3-8.06,.48-12.1,.62-3.29,.12-6.58,.18-9.88,.12-3.87-.07-7.74-.3-11.61-.47-10.82-.49-21.59-1.56-32.36-2.74-7.45-.82-14.9-1.68-22.35-2.47-6.83-.72-13.67-1.44-20.51-2.01-5.18-.43-10.39-.66-15.58-.91-3.87-.18-7.74-.27-11.61-.38-2.58-.07-5.17-.1-7.75-.13-4.04-.05-8.08-.13-12.13-.11-5.04,.03-10.08,.13-15.12,.25-3.79,.09-7.58,.22-11.36,.38-4.12,.17-8.23,.4-12.35,.61-4.78,.25-9.56,.48-14.34,.77-4.15,.25-8.31,.57-12.46,.88-4.73,.36-9.47,.71-14.19,1.12-5.06,.44-10.12,.9-15.17,1.42-9.73,1-19.47,2-29.19,3.1-7.74,.88-15.46,1.87-23.18,2.88-8.71,1.15-17.42,2.33-26.11,3.59-8.61,1.25-17.22,2.56-25.81,3.92-9.3,1.48-18.59,2.99-27.86,4.6-9.4,1.63-18.78,3.35-28.15,5.14-10.27,1.96-20.52,4.03-30.77,6.07-2.98,.59-5.96,1.22-8.92,1.88-.77,.17-1.22,.02-1.67-.63-1.13-1.65-2.34-3.24-3.52-4.86-.22-.3-.41-.61-.67-1.01Z"/><path class="cls-2" d="M43.16,150.85c2.68-.56,5.11-1.1,7.56-1.57,10.8-2.07,21.59-4.19,32.41-6.14,9.63-1.74,19.29-3.32,28.95-4.88,8.51-1.37,17.03-2.65,25.56-3.9,6.39-.94,12.79-1.78,19.18-2.62,6.28-.83,12.55-1.64,18.84-2.38,7.11-.84,14.23-1.6,21.35-2.36,5.51-.59,11.02-1.15,16.53-1.65,6.39-.58,12.78-1.1,19.17-1.6,5.64-.44,11.29-.86,16.94-1.23,4.03-.26,8.06-.44,12.1-.65,4.12-.21,8.23-.44,12.35-.61,3.29-.13,6.58-.14,9.87-.27,12.08-.49,24.17-.39,36.26-.34,5.62,.02,11.24,.28,16.86,.47,3.91,.13,7.82,.3,11.73,.52,4.03,.23,8.06,.51,12.08,.83,4.9,.39,9.79,.79,14.68,1.31,4.97,.53,9.93,1.16,14.88,1.83,7.63,1.04,15.24,2.3,22.77,3.91,4.81,1.02,9.58,2.19,14.37,3.3,.23,.05,.45,.16,.88,.31-1.01,.6-1.85,1.12-2.71,1.6-9.13,5.16-18.71,9.32-28.68,12.56-9.64,3.13-19.48,5.44-29.47,7.16-7.06,1.22-14.16,2.2-21.29,2.88-5.51,.52-11.03,.97-16.56,1.34-4.9,.33-9.81,.54-14.72,.76-3.74,.16-7.49,.28-11.24,.37-4.71,.11-9.41,.19-14.12,.25-3.96,.06-7.92,.12-11.88,.12-74.56,0-149.11,0-223.67,0-.42,0-.84-.02-1.25,0-.59,.04-1.03-.14-1.42-.6-.45-.54-.96-1.04-1.45-1.55-2.07-2.12-4.14-4.23-6.2-6.34-.19-.2-.35-.44-.66-.84Z"/><path class="cls-2" d="M151.25,67.71c.16-.18,.3-.38,.47-.55,2.43-2.4,4.8-4.87,7.32-7.17,4.08-3.74,8.2-7.44,12.42-11.02,5.4-4.59,11.11-8.78,16.95-12.79,6.57-4.51,13.36-8.65,20.38-12.4,9.08-4.86,18.46-9.07,28.16-12.57,10.13-3.65,20.48-6.48,31.07-8.42,6.06-1.11,12.17-2,18.33-2.31,4.74-.24,9.49-.53,14.23-.47,11.42,.15,22.68,1.56,33.65,4.85,7.06,2.11,13.8,4.94,20.01,8.95,5.33,3.44,10.04,7.57,13.62,12.86,.23,.33,.41,.69,.74,1.24-1.18-.05-2.15-.1-3.13-.14-2.04-.08-4.08-.2-6.12-.23-3.16-.04-6.33-.08-9.49,0-4.83,.14-9.66,.3-14.47,.62-6.02,.4-12.04,.88-18.05,1.5-6.34,.65-12.66,1.42-18.97,2.3-6.14,.85-12.28,1.82-18.39,2.9-7.83,1.39-15.64,2.88-23.44,4.44-12.79,2.56-25.47,5.59-38.1,8.84-15.28,3.93-30.47,8.21-45.53,12.93-6.8,2.13-13.57,4.32-20.36,6.48-.39,.12-.78,.23-1.17,.35l-.13-.19Z"/></g></svg>