<svg id="Laag_1" data-name="Laag 1" xmlns="http://www.w3.org/2000/svg" xmlns:xlink="http://www.w3.org/1999/xlink" width="277.543" height="117.277" viewBox="0 0 277.543 117.277">
  <defs>
    <clipPath id="clip-path">
      <rect id="Rectangle_6" data-name="Rectangle 6" width="277.543" height="94.491" fill="none"/>
    </clipPath>
    <clipPath id="clip-path-4">
      <rect id="Rectangle_10" data-name="Rectangle 10" width="277.543" height="117.277" fill="none"/>
    </clipPath>
  </defs>
  <g id="Groupe_4" data-name="Groupe 4" clip-path="url(#clip-path)">
    <path id="Tracé_1" data-name="Tracé 1" d="M101.246,19.566,79.851,25.38c-1.25.345-1.5,1.355-.563,2.251l8.267,7.842a4.56,4.56,0,0,0,3.983.963s20.587-6.026,22.383-6.549l.908-.265A6.752,6.752,0,0,0,118,27.508a6.524,6.524,0,0,0,1.685-3.921c.018-.465.058-1.393.058-1.393l.483-11.058a5.244,5.244,0,0,0-1.75-3.833L110.111.639c-1.288-1.028-2.215-.8-2.251.608-.085,3.958-.25,11.57-.25,12.045a6.236,6.236,0,0,1-1.968,4.251c-1.25,1.223-4.391,2-4.391,2" transform="translate(-59.036 -0.002)" fill="#f5c02b"/>
    <path id="Tracé_2" data-name="Tracé 2" d="M23.532,32.491a16.806,16.806,0,0,1,4.076-1.5L34.387,29.2,49.08,25.359c1.25-.328,1.445-1.25.413-2.04L40.71,16.59a5.6,5.6,0,0,0-4.176-.883L24.692,18.573l-9.9,2.4a13.171,13.171,0,0,0-1.6.5,7.657,7.657,0,0,0-3.043,2.618A6.321,6.321,0,0,0,9.068,27.7c0,.29.015.58.025.868,0,.333.023.67.03,1,.075,2.566.305,10.36.305,10.36a7.163,7.163,0,0,0,1.7,4.073L18.7,51.938c.9.94,1.618.648,1.608-.658,0,0-.123-11.928-.133-12.828A7.436,7.436,0,0,1,23.532,32.5" transform="translate(-6.8 -11.701)" fill="#f5c02b"/>
  </g>
  <path id="Tracé_3" data-name="Tracé 3" d="M18.842,247.06l-5.674,16.824L7.547,247.06H0l9.887,25.308h6.471l9.89-25.308Z" transform="translate(0 -185.281)" fill="#272f3f"/>
  <path id="Tracé_4" data-name="Tracé 4" d="M122,210.7h7.5v6.326H122Zm.185,9.092h7.124v25.123H122.19Z" transform="translate(-91.493 -158.013)" fill="#272f3f"/>
  <g id="Groupe_5" data-name="Groupe 5" clip-path="url(#clip-path)">
    <path id="Tracé_5" data-name="Tracé 5" d="M181.08,253.345c-4.356,0-7.309-1.733-7.309-7.544V233.9h-3V227.8h3V221.38h7.122V227.8H186.8V233.9h-5.911v10.732c0,1.638.705,2.436,2.3,2.436a7.232,7.232,0,0,0,3.513-.89v5.719a10.5,10.5,0,0,1-5.624,1.453" transform="translate(-128.068 -166.022)" fill="#272f3f"/>
    <path id="Tracé_6" data-name="Tracé 6" d="M266.059,271.351V268.63a9.653,9.653,0,0,1-7.594,3.188c-4.734,0-8.624-2.718-8.624-7.687v-.092c0-5.484,4.173-8.017,10.125-8.017a17.837,17.837,0,0,1,6.141,1.033v-.423c0-2.951-1.83-4.6-5.391-4.6a18.518,18.518,0,0,0-6.939,1.36L252,247.963a22.177,22.177,0,0,1,9.752-2.013c7.782,0,11.2,4.028,11.2,10.825v14.578Zm.14-10.125a11.052,11.052,0,0,0-4.546-.938c-3.048,0-4.921,1.218-4.921,3.468v.093c0,1.923,1.593,3.048,3.891,3.048,3.326,0,5.576-1.828,5.576-4.406Z" transform="translate(-187.366 -184.449)" fill="#272f3f"/>
  </g>
  <path id="Tracé_21" data-name="Tracé 21" d="M0,0H6.274V34.215H0Z" transform="translate(92.048 52.687)" fill="#272f3f"/>
  <g id="Groupe_6" data-name="Groupe 6" clip-path="url(#clip-path)">
    <path id="Tracé_7" data-name="Tracé 7" d="M432.076,271.341c-7.782,0-13.546-5.751-13.546-12.983v-.093c0-7.219,5.811-13.075,13.638-13.075,7.782,0,13.546,5.764,13.546,12.983v.093c0,7.217-5.811,13.075-13.638,13.075m6.609-13.075a6.676,6.676,0,0,0-6.609-6.939c-4.076,0-6.514,3.143-6.514,6.847v.093a6.673,6.673,0,0,0,6.607,6.937c4.078,0,6.516-3.138,6.516-6.844Z" transform="translate(-313.874 -183.879)" fill="#272f3f"/>
    <path id="Tracé_8" data-name="Tracé 8" d="M585.868,280.875a19,19,0,0,1-11-3.371l1.64-2.813a15.5,15.5,0,0,0,9.327,3.093c5.344,0,8.812-2.953,8.812-8.624V266.3c-2.123,2.813-5.074,5.1-9.527,5.1a11.436,11.436,0,0,1,0-22.873,11.359,11.359,0,0,1,9.467,4.874v-4.348h3.608v20c0,7.827-4.874,11.808-12.325,11.808m-.048-29.152c-4.594,0-8.389,3.141-8.389,8.2a8.183,8.183,0,0,0,8.389,8.3c4.6,0,8.9-3.283,8.9-8.252,0-5.016-4.308-8.252-8.9-8.252" transform="translate(-430.265 -186.383)" fill="#272f3f"/>
    <path id="Tracé_9" data-name="Tracé 9" d="M707.408,273.551H703.8V249.322h3.608v6.324c1.78-4.031,5.3-6.937,9.892-6.752v3.891h-.285c-5.3,0-9.607,3.8-9.607,11.108Z" transform="translate(-527.81 -186.651)" fill="#272f3f"/>
    <path id="Tracé_10" data-name="Tracé 10" d="M782.1,273.871a12.655,12.655,0,1,1,12.7-12.7,12.593,12.593,0,0,1-12.7,12.7m0-22.125c-5.251,0-8.859,4.173-8.859,9.422s3.846,9.467,8.952,9.467c5.251,0,8.9-4.168,8.9-9.375,0-5.3-3.888-9.515-9-9.515" transform="translate(-577.111 -186.406)" fill="#272f3f"/>
    <path id="Tracé_11" data-name="Tracé 11" d="M912.7,250.62h3.561v24.23H912.7v-4.216a9.229,9.229,0,0,1-8.294,4.734c-5.861,0-9.28-3.938-9.28-9.7V250.62h3.606v14.156c0,4.5,2.441,7.312,6.7,7.312,4.126,0,7.252-3.048,7.252-7.594Z" transform="translate(-671.297 -187.951)" fill="#272f3f"/>
    <path id="Tracé_12" data-name="Tracé 12" d="M1024.978,273.823a10.938,10.938,0,0,1-9.282-5.156v12.14h-3.606v-31.73h3.606v4.871c1.973-2.906,4.829-5.389,9.282-5.389,5.811,0,11.575,4.594,11.575,12.608,0,7.967-5.716,12.655-11.575,12.655m-.658-22.03a9.008,9.008,0,0,0-8.752,9.375c0,5.671,4.266,9.422,8.752,9.422,4.689,0,8.532-3.468,8.532-9.375,0-5.764-3.936-9.422-8.532-9.422" transform="translate(-759.01 -186.406)" fill="#272f3f"/>
  </g>
  <g id="Groupe_7" data-name="Groupe 7" clip-path="url(#clip-path-4)">
    <path id="Tracé_13" data-name="Tracé 13" d="M233.234,411.137a2.791,2.791,0,0,1,2.833,2.873h-5.651a2.877,2.877,0,0,1,2.818-2.873m-4.223,3.406a4.266,4.266,0,0,0,4.383,4.523,4.672,4.672,0,0,0,3.421-1.315l-.64-.875a3.751,3.751,0,0,1-2.656,1.09,3.032,3.032,0,0,1-3.1-2.978H237.4v-.34c0-2.583-1.53-4.614-4.133-4.614a4.309,4.309,0,0,0-4.251,4.5m-8.537,3.173a4.578,4.578,0,0,0,3.476,1.35c2.228,0,3.383-1.155,3.383-2.6,0-1.908-1.725-2.336-3.223-2.676-1.123-.268-2.1-.535-2.1-1.373,0-.765.73-1.3,1.905-1.3a3.353,3.353,0,0,1,2.568,1.088l.623-.928a4.364,4.364,0,0,0-3.191-1.25c-2.048,0-3.206,1.138-3.206,2.476,0,1.783,1.655,2.175,3.118,2.5,1.158.285,2.211.59,2.211,1.533,0,.84-.713,1.428-2.033,1.428a3.894,3.894,0,0,1-2.833-1.23Zm-3.251,1.138h1.335v-8.6h-1.335Zm.66-10.05a.91.91,0,0,0,.905-.91.9.9,0,1,0-1.8,0,.908.908,0,0,0,.89.91m-3.726,10.252a2.185,2.185,0,0,0,1.6-.55l-.393-1a1.278,1.278,0,0,1-.908.358c-.588,0-.873-.463-.873-1.105v-5.329h1.75v-1.173h-1.75V407.9h-1.335v2.353h-1.425v1.173h1.425v5.634a1.75,1.75,0,0,0,1.905,2m-8.064-.21h1.335V412.76a3.151,3.151,0,0,1,2.336-1.373,2.384,2.384,0,0,1,.533.052v-1.37a3.661,3.661,0,0,0-2.868,1.568v-1.388h-1.335Zm-6.309-7.717A2.794,2.794,0,0,1,202.62,414h-5.654a2.877,2.877,0,0,1,2.818-2.873m-4.223,3.413a4.266,4.266,0,0,0,4.384,4.523,4.674,4.674,0,0,0,3.423-1.315l-.643-.875a3.751,3.751,0,0,1-2.656,1.09,3.034,3.034,0,0,1-3.1-2.978h6.969v-.34c0-2.583-1.53-4.614-4.133-4.614a4.309,4.309,0,0,0-4.251,4.5m-3.063,0c0,1.908-1.035,3.333-2.763,3.333a3.2,3.2,0,0,1-2.568-1.39v-3.883a3.178,3.178,0,0,1,2.568-1.373c1.728,0,2.763,1.408,2.763,3.316m-5.331,7.592v-4.574a3.531,3.531,0,0,0,2.906,1.5c2.266,0,3.831-1.75,3.831-4.524s-1.565-4.5-3.831-4.5a3.6,3.6,0,0,0-2.906,1.5v-1.28h-1.335v11.885Zm-4.409-3.283h1.55l-3.313-4.419,3.116-4.186h-1.55l-2.386,3.278-2.388-3.278h-1.55l3.118,4.186-3.3,4.419h1.533l2.583-3.528Zm-11.318-7.709a2.792,2.792,0,0,1,2.836,2.873h-5.651a2.875,2.875,0,0,1,2.816-2.873m-4.221,3.406a4.264,4.264,0,0,0,4.384,4.523,4.672,4.672,0,0,0,3.421-1.315l-.64-.875a3.751,3.751,0,0,1-2.658,1.09,3.03,3.03,0,0,1-3.1-2.978h6.969v-.34c0-2.583-1.533-4.614-4.133-4.614a4.309,4.309,0,0,0-4.251,4.5m-8.1,4.311h1.335V406.971H159.1Zm-4-1.815a2.889,2.889,0,0,1-2.373,1.07,1.9,1.9,0,1,1,0-3.763,2.889,2.889,0,0,1,2.373,1.07Zm0,1.815h1.333V412.94c0-2.086-1.5-2.906-3.331-2.906a4.5,4.5,0,0,0-3.438,1.423l.623.93a3.411,3.411,0,0,1,2.638-1.2c1.25,0,2.176.663,2.176,1.82v1.55a3.6,3.6,0,0,0-2.853-1.175,2.808,2.808,0,0,0-3,2.833,2.858,2.858,0,0,0,3,2.848,3.731,3.731,0,0,0,2.853-1.19Zm-14.7-4.311a4.253,4.253,0,0,0,4.293,4.523,3.658,3.658,0,0,0,3.153-1.5l-.89-.82a2.6,2.6,0,0,1-2.193,1.123c-1.835,0-2.976-1.425-2.976-3.333s1.14-3.316,2.976-3.316a2.551,2.551,0,0,1,2.193,1.123l.89-.82a3.689,3.689,0,0,0-3.153-1.5,4.247,4.247,0,0,0-4.293,4.5m-3.523,4.331h1.335v-8.6h-1.335Zm.658-10.05a.913.913,0,0,0,.91-.91.9.9,0,0,0-1.8,0,.91.91,0,0,0,.888.91m-4.659,10.05H134.2v-6.034a2.446,2.446,0,0,0-2.751-2.778,4.271,4.271,0,0,0-3.066,1.46v-1.25h-1.335v8.6h1.335v-6.284a3.326,3.326,0,0,1,2.551-1.335c1.158,0,1.925.48,1.925,2Zm-9.82,0h1.335V412.77a2.427,2.427,0,0,0-2.751-2.751,4.283,4.283,0,0,0-3.086,1.46v-4.509h-1.333v11.875h1.333v-6.284a3.386,3.386,0,0,1,2.551-1.335c1.158,0,1.943.445,1.943,1.96ZM107.9,414.535a4.254,4.254,0,0,0,4.293,4.523,3.658,3.658,0,0,0,3.153-1.5l-.89-.82a2.6,2.6,0,0,1-2.193,1.123c-1.835,0-2.976-1.425-2.976-3.333s1.14-3.316,2.976-3.316a2.551,2.551,0,0,1,2.193,1.123l.89-.82a3.689,3.689,0,0,0-3.153-1.5,4.248,4.248,0,0,0-4.293,4.5m-5.814-3.378a2.792,2.792,0,0,1,2.836,2.873H99.274a2.875,2.875,0,0,1,2.816-2.873m-4.226,3.406a4.264,4.264,0,0,0,4.383,4.523,4.672,4.672,0,0,0,3.421-1.315l-.64-.875a3.751,3.751,0,0,1-2.656,1.09,3.032,3.032,0,0,1-3.1-2.978h6.969v-.34c0-2.583-1.533-4.614-4.133-4.614a4.309,4.309,0,0,0-4.251,4.5m-2.568,4.523a2.185,2.185,0,0,0,1.6-.55l-.393-1a1.283,1.283,0,0,1-.908.358c-.588,0-.873-.463-.873-1.105v-5.339h1.75v-1.173h-1.75V407.9H93.38v2.353H91.955v1.173H93.38v5.634a1.75,1.75,0,0,0,1.905,2m-10.78-2.688a3.181,3.181,0,0,1-2.566,1.408c-1.73,0-2.766-1.39-2.766-3.278s1.035-3.281,2.766-3.281a3.166,3.166,0,0,1,2.566,1.39Zm-6.239,4.689a4.387,4.387,0,0,0,3.476,1.28c2.118.01,4.118-.878,4.118-3.741v-8.347H84.526v1.3a3.568,3.568,0,0,0-2.888-1.513c-2.251,0-3.831,1.708-3.831,4.474s1.585,4.453,3.831,4.453a3.593,3.593,0,0,0,2.888-1.53v1.228a2.465,2.465,0,0,1-2.763,2.586,3.281,3.281,0,0,1-2.8-1.178Zm-4-2.213H75.6v-6.031a2.446,2.446,0,0,0-2.751-2.778,4.271,4.271,0,0,0-3.066,1.46v-1.25h-1.3v8.6h1.335v-6.284a3.321,3.321,0,0,1,2.541-1.335c1.16,0,1.925.48,1.925,2Zm-9.82,0h1.335v-8.594H64.446Zm.66-10.05a.913.913,0,0,0,.908-.91.9.9,0,1,0-.908.91m-9.98,5.751a4.253,4.253,0,0,0,4.293,4.523,3.658,3.658,0,0,0,3.153-1.5l-.89-.82a2.6,2.6,0,0,1-2.193,1.123c-1.835,0-2.976-1.425-2.976-3.333s1.14-3.316,2.976-3.316a2.551,2.551,0,0,1,2.193,1.123l.89-.82a3.689,3.689,0,0,0-3.153-1.5,4.247,4.247,0,0,0-4.293,4.5m-5.356,4.321H51.1V412.76a3.142,3.142,0,0,1,2.333-1.373,2.392,2.392,0,0,1,.535.052v-1.37a3.661,3.661,0,0,0-2.868,1.568v-1.388H49.768Zm-6.434-.978c-1.835,0-2.871-1.568-2.871-3.333s1.035-3.316,2.871-3.316,2.853,1.568,2.853,3.316-1.018,3.333-2.853,3.333m0,1.19a4.52,4.52,0,1,0-4.251-4.523,4.228,4.228,0,0,0,4.251,4.523m-8.429-.213h1.335v-7.424h1.75v-1.173h-1.75v-.655c0-1.088.48-1.7,1.355-1.7a1.473,1.473,0,0,1,.765.2l.34-1a2.5,2.5,0,0,0-1.3-.3c-1.5,0-2.5,1.015-2.5,2.8v.66H33.474v1.173H34.9Zm-4.383,0h1.325v-6.034a2.446,2.446,0,0,0-2.751-2.778,4.281,4.281,0,0,0-3.051,1.46v-1.25H24.715v8.6h1.333v-6.284a3.326,3.326,0,0,1,2.551-1.335c1.16,0,1.925.48,1.925,2Zm-9.82,0h1.335v-8.6H20.7Zm.66-10.05a.913.913,0,0,0,.908-.91.9.9,0,0,0-1.8,0,.91.91,0,0,0,.89.91m-6.969,2.341a2.794,2.794,0,0,1,2.836,2.873H11.577a2.877,2.877,0,0,1,2.818-2.873m-4.223,3.406a4.266,4.266,0,0,0,4.383,4.523,4.674,4.674,0,0,0,3.423-1.315l-.633-.875a3.751,3.751,0,0,1-2.656,1.09,3.034,3.034,0,0,1-3.1-2.978h6.959v-.34c0-2.583-1.53-4.614-4.133-4.614a4.309,4.309,0,0,0-4.251,4.5M4.79,418.846H6.125V412.76a3.151,3.151,0,0,1,2.336-1.373,2.421,2.421,0,0,1,.535.052v-1.37a3.662,3.662,0,0,0-2.871,1.568v-1.388H4.79Z" transform="translate(-3.592 -305.07)" fill="#272f3f"/>
  </g>
</svg>
