<?xml version="1.0" encoding="UTF-8"?>
<svg id="Layer_1" data-name="Layer 1" xmlns="http://www.w3.org/2000/svg" version="1.1" viewBox="0 0 581.11 215.58">
  <defs>
    <style>
      .cls-1 {
        fill: none;
      }

      .cls-1, .cls-2, .cls-3 {
        stroke-width: 0px;
      }

      .cls-2 {
        fill: #001a70;
      }

      .cls-3 {
        fill: #fe5716;
      }
    </style>
  </defs>
  <g>
    <path class="cls-3" d="M121.31,65.53c.45-3.87-.12-9.53,2.94-12.19.9-4.13,7.4-3.18,6.38-5.8-.62-1.64-3.68-.86-4.91-.56-.94.23-9.85,3.04-13.28,3.42-1.45-.4-2.9-.8-4.35-1.21-5.59.76-8.82,5.2-11.93,8.75-2.61,2.96-6.14,10.22-3.33,14.56-.16.95-.31,1.9-.47,2.84l6.36,9.29c2.19,1.58,2.48,2.74,4.85,4.3.49.73.97,1.47,1.46,2.19,1.94,1.27,7.63,1.29,8.58.46,9.17.86,8.18-17.69,11.08-21.58-.37-1.76-1.91-3.57-3.36-4.47M81.8,121.23c1.94-.5,5.26-.76,6.99-1.63,2.77-1.38,12.28-8.03,9.25-13.45-.94-11.41-14.7-1.76-20.55-5.76-5.94-.77-12.61-11.99-14.38-16.79-.7-1.9-.41-1.25-1.36-2.76,0-.16-.61.52-.6.37-1.74,2.02-1.44,3.78-1.71,8.71-.77-.05-1.55-.1-2.33-.15-.15,1.79-.33,2.75-1.16,3.67-.18.31-.35.6-.52.9-1.48-.5-.74.21-1.34-1.01-5.46.26-5.06,5.75-7.57,8.87.12,10.24,20.39,22.88,35.28,19.03M149.16,90.12c-8.85,1.34-14.26,4.16-17.6,6.48-2.33,1.62-3.01,2.72-3.52,3.4-.5.69-.85,2.2-.6,3.8.26,1.59.9,3.27,2.28,4.21,10.86-.8,29.73-1.49,33.4,7.64.2,1.27.48,2.03.51,2.34,3.59-.89.96-.58,6.26.26,1.22.19,4.2-.49,6.2-.97.9-.21,1.41-1.04,1.41-1.04,0,0-.17-.87-.12-1.34,0,0,1.85.13,2.62-.45,5.02-.82,2.38-3.18,4.76-5.84-1.43-17.06-18.93-21.03-35.59-18.5M129.76,127.23c-2.52,1.92-3.58,1.45-5.06,4.43-.15,0,.22.45.07.45,1.5,2.99,4.95,4.21,7.48,6.32.79.66,2.92,4.37,3.94,4.64,1.15,1.36,1.89,5.13,2.63,5.13.78,1.05-.06,3.54.7,4.51.06,4.46-.57,4.78-1.35,5.63,0,.31.43,1.12.43,1.43.21.22,2,1.5,2.78,1.34,2.42.07,12.38,7.84,13.17,9.33,7.14.54,6.62-1.64,11.55-3.73,1.34-.57,2.4-.03,3.26-.94.92-.94,1-2.78,1.87-3.73.12-17.56-23.77-34.2-41.47-34.8M101.64,131.24c-1,1.06-3.73,1.45-4.49,2.66-1.16,1.83-3.85,6-5.95,7.99-6.76,6.41-21.24,9.64-28.38,3.51-.46.03-.2.3.36,2.05.52,3.32,3.2,11.13,2.21,13.12.64,2.22,1.32,1.41,2.53,2.63.82.83,1.17,3,2.12,3.59,1.09-.08,2.17-.16,3.26-.24.19.61.39,1.23.59,1.83,1.39-.1,2.79-.2,4.19-.29.79.18,3.16,1.39,3.86,1.59,1.55-.1,3.1-.22,4.65-.33,3.56.95,6.65-.53,9.65-2.55,1.67-1.13,3.51-.96,4.99-2.22,2.15-1.85,5.08-5.45,6.45-7.94,3.37-6.11,2.23-20.73-.82-24.35-1.19-1.3-2.6-1.33-5.22-1.03"/>
    <g>
      <rect class="cls-2" x="217.86" y="77.92" width="12.13" height="67.87"/>
      <g>
        <path class="cls-2" d="M283.74,145.79h-11.49v-6.33h-.18c-3.71,4.52-8.96,7.42-15.29,7.42-11.04,0-15.84-7.78-15.84-18.28v-29.41h12.13v24.89c0,5.7.09,13.39,7.87,13.39,8.78,0,10.68-9.5,10.68-15.48v-22.81h12.13v46.61Z"/>
        <path class="cls-2" d="M294.24,99.19h11.31v6.52h.18c3.8-5.7,9.32-7.6,13.85-7.6,6.52,0,11.13,2.44,13.76,8.23,2.8-5.61,8.87-8.23,14.57-8.23,11.49,0,14.75,7.87,14.75,18.28v29.41h-12.13v-27.78c0-4.35,0-10.5-6.97-10.5-8.06,0-9.05,9.59-9.05,15.66v22.62h-12.13v-27.78c0-4.35,0-10.5-6.97-10.5-8.06,0-9.05,9.59-9.05,15.66v22.62h-12.13v-46.61Z"/>
      </g>
      <path class="cls-2" d="M373.33,99.19h12.13v46.61h-12.13v-46.61ZM373.33,79.1h12.13v11.58h-12.13v-11.58Z"/>
      <g>
        <path class="cls-2" d="M396.41,99.19h11.49v6.33h.18c3.8-5.34,8.96-7.42,15.29-7.42,11.04,0,15.84,7.78,15.84,18.28v29.41h-12.13v-24.89c0-5.7-.09-13.39-7.87-13.39-8.78,0-10.68,9.5-10.68,15.48v22.81h-12.13v-46.61Z"/>
        <path class="cls-2" d="M492.69,145.79h-11.49v-6.33h-.18c-3.71,4.52-8.96,7.42-15.29,7.42-11.04,0-15.84-7.78-15.84-18.28v-29.41h12.13v24.89c0,5.7.09,13.39,7.87,13.39,8.78,0,10.68-9.5,10.68-15.48v-22.81h12.13v46.61Z"/>
        <path class="cls-2" d="M531.06,108.96c-3.71-1.27-6.43-1.99-10.86-1.99-3.26,0-7.15,1.18-7.15,5.16,0,7.42,21.09,2.72,21.09,19.55,0,10.86-9.68,15.21-19.55,15.21-4.62,0-9.32-.82-13.75-1.99l.72-9.95c3.8,1.9,7.78,3.08,11.95,3.08,3.08,0,7.96-1.18,7.96-5.7,0-9.14-21.09-2.9-21.09-19.73,0-10.05,8.78-14.48,18.28-14.48,5.7,0,9.41.9,13.21,1.72l-.81,9.14Z"/>
      </g>
    </g>
  </g>
  <rect class="cls-1" width="581.11" height="215.58"/>
</svg>