<svg xmlns="http://www.w3.org/2000/svg" width="163" height="41" viewBox="0 0 163 41" fill="none">
    <path d="M51.8792 13.5083C50.1885 9.67337 43.5873 8.58371 35.1688 10.1374L23.2739 30.739L15.5865 17.4275C4.80589 23.5085 -1.75317 31.3084 0.412088 36.2154C2.94994 41.9695 16.5285 41.5512 30.7433 35.2839C44.9546 29.0131 54.4171 19.2659 51.8792 13.5118M35.1688 10.1374L41.0213 0H5.52998L15.59 17.424C17.46 16.3695 19.453 15.3677 21.5515 14.4398C26.2898 12.3483 30.9577 10.9142 35.1688 10.1374Z" fill="#09464C"/>
    <path d="M84.9601 8.56616L78.0074 26.0429L71.0546 8.56616H66.1055L75.6172 31.5369H80.373L89.9339 8.56616H84.9601Z" fill="#09464C"/>
    <path d="M101.375 8.07751C94.6929 8.07751 89.6523 13.2692 89.6523 20.1552C89.6523 27.0411 95.0866 32.1871 102.029 32.1871C105.157 32.1871 108.011 31.2627 110.286 29.5087L110.416 29.4067L108.17 26.085L108.022 26.1905C106.155 27.5332 104.314 28.187 102.391 28.187C98.2642 28.187 95.294 26.0182 94.4433 22.3907C94.366 22.0603 94.3168 21.7229 94.2887 21.519H113.129L113.14 21.3573C113.178 20.809 113.189 20.5313 113.189 20.1622C113.189 12.9353 108.44 8.07751 101.371 8.07751M94.3098 17.7685C94.3414 17.5786 94.3976 17.2658 94.496 16.8792C95.076 14.6366 96.7843 11.9616 101.618 11.9616C105.488 11.9616 107.748 13.575 108.532 16.9002C108.627 17.2377 108.672 17.5681 108.697 17.7685H94.3133H94.3098Z" fill="#09464C"/>
    <path d="M133.638 25.607L120.963 8.5907H116.246V31.5404H120.433V14.7033L133.108 31.5404H137.783V8.5907H133.638V25.607Z" fill="#09464C"/>
    <path d="M158.855 8.5907V25.607L146.176 8.5907H141.459V31.5404H145.645V14.7033L158.321 31.5404H162.999V8.5907H158.855Z" fill="#09464C"/>
</svg>