<svg xmlns="http://www.w3.org/2000/svg" viewBox="0 0 1147.72 337.83"><defs><style>.cls-1{fill:#002e56;}</style></defs><g id="Laag_2" data-name="Laag 2"><g id="Laag_1-2" data-name="Laag 1"><path class="cls-1" d="M112.33,337.83s70.8-390.62,392.06-148.44c0,0-228.5-106.65-392.06,148.44"/><path class="cls-1" d="M407.47.3S289.43,298.29,0,96.72C0,96.72,207.08,208.87,407.47.3"/><path class="cls-1" d="M23.2,319.32S259.34-46,519.43,154.24c0,0-270.61-83-496.23,165.08"/><polygon class="cls-1" points="571.82 48.7 617.71 48.7 662.55 166.4 663.25 166.4 708.44 48.7 751.53 48.7 685.33 216.84 640.48 216.84 571.82 48.7"/><rect class="cls-1" x="768.9" y="48.69" width="42.04" height="168.15"/><path class="cls-1" d="M831.19,84.43V48.7h34.68V0h42V48.7h46.25V84.43H907.9V158c0,16.82,4.91,27.33,23.47,27.33,7.35,0,17.52-1.4,22.78-5.25v35.37c-8.77,4.21-23.48,5.6-33.29,5.6-44.49,0-55-20-55-59.54V84.43Z"/><path class="cls-1" d="M1056.29,44.49c50.79,0,91.43,35.38,91.43,88.28s-40.64,88.28-91.43,88.28-91.43-35.38-91.43-88.28,40.64-88.28,91.43-88.28m0,138.72c30.83,0,49.39-24.17,49.39-50.44s-18.56-50.44-49.39-50.44-49.39,24.17-49.39,50.44,18.56,50.44,49.39,50.44"/></g></g></svg>