<?xml version="1.0" encoding="UTF-8"?> <svg xmlns="http://www.w3.org/2000/svg" xmlns:xlink="http://www.w3.org/1999/xlink" version="1.1" id="Layer_1" x="0px" y="0px" viewBox="0 0 478.8 209.1" style="enable-background:new 0 0 478.8 209.1;" xml:space="preserve"> <style type="text/css"> .st0{fill:#231F20;} .st1{fill:#FFFFFF;} .st2{fill:#0A0219;} .st3{fill:#CED2D4;} .st4{fill:#CE321A;} </style> <g> <g> <path class="st1" d="M65.7,0v12.1L17.4,73.6v0.2h49.4V86H0V73.8l48.2-61.4v-0.2H2.4V0H65.7z"></path> <path class="st1" d="M116.8,67.2h12.6c-3.1,11.7-12.3,20.6-28,20.6c-19.1,0-30.8-13.2-30.8-32.5c0-20,11.7-32.5,30.2-32.5 c19.8,0,29.6,13.8,29.6,35.7H83.2c0,10.3,6.6,18.9,17.8,18.9C111.5,77.4,115.7,71,116.8,67.2z M83.2,49.2h34.5 c0-9.5-6.7-16.4-17-16.4S83.2,39.7,83.2,49.2z"></path> <path class="st1" d="M192.5,43.5V86h-12.7V47.1c0-8.3-3.5-13.6-12.1-13.6c-9.7,0-16,5.9-16,15V86H139V24.5h12.6v7.9h0.2 c3.2-4.8,9.6-9.6,20.2-9.6C183.5,22.8,192.5,29.5,192.5,43.5z"></path> <path class="st1" d="M204.1,7.5c0-4.3,3.6-6.6,7.1-6.6c3.7,0,7.2,2.3,7.2,6.6c0,4.3-3.5,6.7-7.2,6.7 C207.7,14.2,204.1,11.8,204.1,7.5z M217.6,24.5V86h-12.6V24.5H217.6z"></path> <path class="st1" d="M248.2,34.9v33.3c0,7,3.4,7.8,11.5,7.3v10.3c-2.5,0.6-5.3,1-8.7,1c-10.1,0-15.6-4.6-15.6-17.6V34.9h-8.9V24.5 h8.9V5.2h12.7v19.4h11.5v10.3H248.2z"></path> <path class="st1" d="M322.4,43.5V86h-12.7V47.1c0-8.3-3.5-13.6-12.3-13.6c-9.3,0-15.9,5.9-15.9,15V86h-12.6V0h12.6v32.5h0.2 c3.2-4.8,9.6-9.6,20-9.6C313.4,22.8,322.4,29.5,322.4,43.5z"></path> <path class="st1" d="M40.9,112.7c-18.4,0-26,16.4-26,32.5c0,16.2,5.9,32.6,25.5,32.6c13.6,0,24.4-9.4,24.5-23.1H40.6v-11.5h38.8 v45.1h-9.9l-3.1-11.8h-0.2c-5.8,8.7-13.8,13.6-26.8,13.6c-24.9,0-38.8-18.9-38.8-44.9c0-25.9,15.6-44.7,40.4-44.7 c22.4,0,34.4,12.1,37,28.6H63.7C61.6,118.8,53.6,112.7,40.9,112.7z"></path> <path class="st1" d="M127.8,125.7v11.9h-0.2c-12.1-2-21.9,6.1-21.9,19.2v31.4H93.1v-61.4h12.6v11.5h0.2c3.2-7.7,8.3-13,16.4-13 C124.5,125.3,126,125.4,127.8,125.7z"></path> <path class="st1" d="M161.2,135.1c-10.1,0-13.8,3.1-14.4,11.1h-12.3c0.6-11.8,8.2-21,26.7-21c13.6,0,23.7,5.2,23.7,21.5v29.2 c0,4.3,1,6.6,5.9,6.1v6c-2.9,1.1-4.9,1.3-7.3,1.3c-6.7,0-9.9-2.4-11.1-8.4h-0.2c-3.8,5.4-10.8,9.1-20.3,9.1 c-12.5,0-20.2-7.2-20.2-17.6c0-13.5,10-17.7,25.4-20.7c9.5-1.8,15.3-3,15.3-8.9C172.2,138.4,169.6,135.1,161.2,135.1z M172.2,164.9v-9.3c-2,1.4-7,2.9-12.9,4.1c-10.5,2.3-15,5.3-15,11.5c0,5.7,3.4,8.8,10.2,8.8C165,180,172.2,174.9,172.2,164.9z"></path> <path class="st1" d="M258.6,157.6c0,20.2-11.7,32.5-27.3,32.5c-9.6,0-15.6-4.6-18.9-9.1h-0.2v28.3h-12.7v-82.4h12.7v7.2h0.2 c3.2-4.3,9.3-8.9,18.9-8.9C246.9,125.1,258.6,137.3,258.6,157.6z M245.8,157.6c0-12-5.9-22.1-17-22.1c-10.2,0-16.6,8.4-16.6,22.1 c0,13.6,6.4,22.1,16.6,22.1C239.9,179.7,245.8,169.6,245.8,157.6z"></path> <path class="st1" d="M322.4,145.8v42.4h-12.7v-38.8c0-8.3-3.5-13.6-12.3-13.6c-9.3,0-15.9,5.9-15.9,15v37.4h-12.6v-86h12.6v32.5 h0.2c3.2-4.8,9.6-9.6,20-9.6C313.4,125.1,322.4,131.7,322.4,145.8z"></path> <path class="st1" d="M335.4,109.7c0-4.3,3.6-6.6,7.1-6.6c3.7,0,7.2,2.3,7.2,6.6c0,4.3-3.5,6.7-7.2,6.7 C339,116.4,335.4,114,335.4,109.7z M348.9,126.8v61.4h-12.6v-61.4H348.9z"></path> <path class="st1" d="M390.2,135.4c-12.4,0-17.7,10.6-17.7,22.1c0,11.5,5.2,22.1,17.7,22.1c10.8,0,14.8-7.5,15.3-14.3h12.6 c-1,14.2-11.9,24.7-27.9,24.7c-18.4,0-30.3-13.2-30.3-32.5s11.9-32.5,30.2-32.5c16,0,26.5,10.2,28,24.2h-12.6 C404.9,143,401,135.4,390.2,135.4z"></path> <path class="st1" d="M478.8,170.9c0,11.8-10.1,19.1-25,19.1c-19.8,0-28.4-9.3-29-22.2h12.3c0.6,6.6,3.5,12.3,16.5,12.3 c8.8,0,12.5-4.3,12.5-8.2c0-7.7-7.3-8.3-16.4-10.5c-9.7-2.3-23-4.2-23-18.2c0-10.1,8.9-18.2,24.3-18.2c16.7,0,24.7,9,25.5,19.7 h-12.3c-0.8-4.8-3.2-9.7-13.1-9.7c-7.6,0-11.7,2.9-11.7,7.2c0,6.3,6.9,6.7,15.8,8.8C466.5,153.7,478.8,156.2,478.8,170.9z"></path> </g> </g> </svg> 